<svg xmlns="http://www.w3.org/2000/svg" height="1em" fill="currentColor" viewBox="0 0 16 21"><path id="map-pin" d="M7.5,0A7.516,7.516,0,0,0,0,7.514c0,6.2,7,12.162,7.3,12.412a.312.312,0,0,0,.4,0c.3-.246,7.3-6.1,7.3-12.415A7.516,7.516,0,0,0,7.5,0Zm0,19.274C6.351,18.246.625,12.862.625,7.514a6.875,6.875,0,1,1,13.75,0C14.375,12.952,8.655,18.259,7.5,19.274ZM7.5,3.75A3.75,3.75,0,1,0,11.25,7.5,3.754,3.754,0,0,0,7.5,3.75Zm0,6.875A3.125,3.125,0,1,1,10.625,7.5,3.129,3.129,0,0,1,7.5,10.625Z" transform="translate(0.5 0.5)" fill="currentColor" stroke="currentColor" stroke-width="1"></path></svg>