<svg version="1.1" xmlns="http://www.w3.org/2000/svg" height="1em" fill="currentColor" viewBox="0 0 530.1 605.8"><g id="icomoon-ignore"></g><path id="Icon_awesome-calendar-alt" d="M0,549c0,31.4,25.4,56.8,56.8,56.8l0,0h416.5c31.4,0,56.8-25.4,56.8-56.8l0,0V227.2H0V549z M378.6,317.1c0-7.8,6.4-14.2,14.2-14.2h47.3c7.8,0,14.2,6.4,14.2,14.2v47.3c0,7.8-6.4,14.2-14.2,14.2h-47.3 c-7.8,0-14.2-6.4-14.2-14.2V317.1z M378.6,468.6c0-7.8,6.4-14.2,14.2-14.2h47.3c7.8,0,14.2,6.4,14.2,14.2v47.3 c0,7.8-6.4,14.2-14.2,14.2h-47.3c-7.8,0-14.2-6.4-14.2-14.2V468.6z M227.2,317.1c0-7.8,6.4-14.2,14.2-14.2h47.3 c7.8,0,14.2,6.4,14.2,14.2v47.3c0,7.8-6.4,14.2-14.2,14.2h-47.3c-7.8,0-14.2-6.4-14.2-14.2V317.1z M227.2,468.6 c0-7.8,6.4-14.2,14.2-14.2h47.3c7.8,0,14.2,6.4,14.2,14.2v47.3c0,7.8-6.4,14.2-14.2,14.2h-47.3c-7.8,0-14.2-6.4-14.2-14.2V468.6z M75.7,317.1c0-7.8,6.4-14.2,14.2-14.2h47.3c7.8,0,14.2,6.4,14.2,14.2v47.3c0,7.8-6.4,14.2-14.2,14.2H89.9 c-7.8,0-14.2-6.4-14.2-14.2V317.1z M75.7,468.6c0-7.8,6.4-14.2,14.2-14.2h47.3c7.8,0,14.2,6.4,14.2,14.2v47.3 c0,7.8-6.4,14.2-14.2,14.2H89.9c-7.8,0-14.2-6.4-14.2-14.2V468.6z M473.3,75.7h-56.8V18.9C416.5,8.5,408,0,397.6,0h-37.9 c-10.4,0-18.9,8.5-18.9,18.9v56.8H189.3V18.9c0-10.4-8.5-18.9-18.9-18.9h-37.9c-10.4,0-18.9,8.5-18.9,18.9v56.8H56.8 C25.4,75.7,0,101.2,0,132.5v56.8h530.1v-56.8C530.1,101.2,504.7,75.7,473.3,75.7z"></path></svg>