<svg data-name="Group 4471" xmlns="http://www.w3.org/2000/svg" height="1em" fill="currentColor" viewBox="0 0 39.463 36.905"><g id="Group_2578" data-name="Group 2578" transform="translate(26.352)"><path id="Path_311" data-name="Path 311" d="M487.341,150.676H475.57a.67.67,0,0,1-.671-.671v-.235a.67.67,0,0,1,.671-.671h11.77a.67.67,0,0,1,.671.671v.235A.67.67,0,0,1,487.341,150.676Z" transform="translate(-474.9 -143.33)" fill="currentColor"></path><path id="Path_312" data-name="Path 312" d="M572.9,63.446V51.671a.67.67,0,0,1,.671-.671h.235a.67.67,0,0,1,.67.671v11.77a.67.67,0,0,1-.67.671h-.235A.661.661,0,0,1,572.9,63.446Z" transform="translate(-567.136 -51)" fill="currentColor"></path></g><path id="chat-3" d="M7.447,41.166a1.719,1.719,0,1,1-1.719,1.719A1.718,1.718,0,0,1,7.447,41.166Zm5.729,0a1.719,1.719,0,1,1-1.719,1.719A1.718,1.718,0,0,1,13.176,41.166Zm5.729,0a1.719,1.719,0,1,1-1.719,1.719A1.718,1.718,0,0,1,18.9,41.166ZM22.915,32H3.437A3.441,3.441,0,0,0,0,35.437V49.186c0,1.9,2.291,2.291,3.437,2.291v6.874l10.312-6.874h9.166a3.441,3.441,0,0,0,3.437-3.437v-12.6A3.441,3.441,0,0,0,22.915,32ZM24.06,48.04a1.148,1.148,0,0,1-1.146,1.146H12.6L5.729,54.915V49.186H3.437A1.148,1.148,0,0,1,2.291,48.04v-12.6a1.148,1.148,0,0,1,1.146-1.146H22.915a1.148,1.148,0,0,1,1.146,1.146Z" transform="translate(0 -21.446)" fill="currentColor"></path></svg>