<svg xmlns="http://www.w3.org/2000/svg" height="1em" fill="currentColor" viewBox="0 0 30.049 30.049"><path id="chat-3" d="M8.492,42.452a1.96,1.96,0,1,1-1.96,1.96A1.96,1.96,0,0,1,8.492,42.452Zm6.532,0a1.96,1.96,0,1,1-1.96,1.96A1.96,1.96,0,0,1,15.025,42.452Zm6.532,0a1.96,1.96,0,1,1-1.96,1.96A1.96,1.96,0,0,1,21.557,42.452ZM26.13,32H3.919A3.924,3.924,0,0,0,0,35.919V51.6c0,2.161,2.613,2.613,3.919,2.613v7.839L15.678,54.21H26.13a3.924,3.924,0,0,0,3.919-3.919V35.919A3.924,3.924,0,0,0,26.13,32Zm1.306,18.291A1.309,1.309,0,0,1,26.13,51.6H14.371L6.532,58.13V51.6H3.919a1.309,1.309,0,0,1-1.306-1.306V35.919a1.309,1.309,0,0,1,1.306-1.306H26.13a1.309,1.309,0,0,1,1.306,1.306Z" transform="translate(0 -32)" fill="currentColor"></path></svg>