<svg xmlns="http://www.w3.org/2000/svg" height="1em" fill="currentColor" viewBox="0 0 30 24.085"><path id="mail_outline" d="M79.5,138.063l12.042-7.535H67.458Zm12.042,10.493v-15L79.5,141.021l-12.042-7.465v15Zm0-21.056a2.789,2.789,0,0,1,2.077.916,2.959,2.959,0,0,1,.88,2.113v18.028a2.958,2.958,0,0,1-.88,2.113,2.789,2.789,0,0,1-2.077.916H67.458a2.789,2.789,0,0,1-2.077-.916,2.958,2.958,0,0,1-.88-2.113V130.528a2.958,2.958,0,0,1,.88-2.113,2.789,2.789,0,0,1,2.077-.916Z" transform="translate(-64.5 -127.5)"></path></svg>