<svg version="1.1" xmlns="http://www.w3.org/2000/svg" height="1em" fill="currentColor" viewBox="0 0 768 768"><g id="icomoon-ignore"></g><path d="M325.4,381c-44.4,0-82.5-15.9-114.2-47.6s-47.6-69.8-47.6-114.2s15.9-82.8,47.6-115.1S281,55.7,325.4,55.7 s82.5,16.2,114.2,48.5s47.6,70.7,47.6,115.1s-15.9,82.5-47.6,114.2S369.8,381,325.4,381z"></path><g><path d="M465.3,644.7c-10.1,0-18.4,8.2-18.4,18.4c0,10.1,8.2,18.4,18.4,18.4c10.1,0,18.4-8.2,18.4-18.4 C483.7,653,475.4,644.7,465.3,644.7z"></path><path d="M465.3,447c-10.1,0-18.4,8.2-18.4,18.4c0,10.1,8.2,18.4,18.4,18.4c10.1,0,18.4-8.2,18.4-18.4 C483.7,455.2,475.4,447,465.3,447z"></path><path d="M415.9,545.9c-10.1,0-18.4,8.2-18.4,18.4c0,10.1,8.2,18.4,18.4,18.4c10.1,0,18.4-8.2,18.4-18.4 C434.2,554.1,426,545.9,415.9,545.9z"></path><path d="M564.2,694.2c-10.1,0-18.4,8.2-18.4,18.4c0,10.1,8.2,18.4,18.4,18.4c10.1,0,18.4-8.2,18.4-18.4 C582.6,702.4,574.3,694.2,564.2,694.2z"></path><path d="M564.2,434.2c10.1,0,18.4-8.2,18.4-18.4s-8.2-18.4-18.4-18.4c-10.1,0-18.4,8.2-18.4,18.4 S554.1,434.2,564.2,434.2z"></path><path d="M570.2,565.3v-83.7c0-6.7-5.5-12.2-12.2-12.2s-12.2,5.5-12.2,12.2v88.8c0,3.2,1.3,6.3,3.6,8.6l60.8,60.7 c2.3,2.3,5.4,3.6,8.6,3.6c3.2,0,6.3-1.3,8.6-3.6c4.7-4.7,4.7-12.5,0-17.2L570.2,565.3z"></path><path d="M675.5,447c-10.1,0-18.4,8.2-18.4,18.4c0,10.1,8.2,18.4,18.4,18.4c10.1,0,18.4-8.2,18.4-18.4 C693.8,455.2,685.6,447,675.5,447z"></path><path d="M663.1,644.7c-10.1,0-18.4,8.2-18.4,18.4c0,10.1,8.2,18.4,18.4,18.4s18.4-8.2,18.4-18.4 C681.5,653,673.2,644.7,663.1,644.7z"></path><path d="M564.2,360.4c-112.4,0-203.8,91.4-203.8,203.8c0,112.4,91.4,203.8,203.8,203.8C676.6,768,768,676.6,768,564.2 C768,451.8,676.6,360.4,564.2,360.4z M743.6,564.2c0,98.9-80.5,179.4-179.4,179.4s-179.4-80.5-179.4-179.4s80.5-179.4,179.4-179.4 S743.6,465.3,743.6,564.2z"></path><path d="M712.6,582.6c10.1,0,18.4-8.2,18.4-18.4c0-10.1-8.2-18.4-18.4-18.4c-10.1,0-18.4,8.2-18.4,18.4 C694.2,574.3,702.4,582.6,712.6,582.6z"></path></g><path d="M313.1,564.2c0-36,7.6-70.3,21.3-101.3c-3-0.1-6-0.1-9-0.1c-68.5,0-139.9,14.9-214.1,44.7S0,576.4,0,624.6v81.8h357.3 C329.4,666,313.1,617,313.1,564.2z"></path></svg>